Patient4_TMGait_0pt4_02_right_41_EMG.mot
version=1
nRows=33
nColumns=33
inDegrees=no
endheader
time	1LAddLong	2LGlutMax	3LGlutMed	4LIliopsoas	5LSemiMemb	6LBicFemLong	7LRecFem	8LVastMed	9LVastLat	10LGasMed	11LTibAnt	12lTibPost	13LPeroneusLong	14LSol	15LExtDigLong	16LFlexDigLong	17RAddLong	18RGlutMax	19RGlutMed	20RIliopsoas	21RSemiMemb	22RBicFemLong	23RRecFem	24RVastMed	25RVastLat	26RGasMed	27RTibAnt	28RTibPost	29RPeroneusLong	30RSol	31RExtDigLong	32RFlexDigLong
55.405	-0.002594	-0.075836	0.11002	0.00824	0.016174	-0.046234	0.023041	0.007019	-0.022125	0.033722	0.01236	0.004425	-0.23315	0.021667	0.25604	-0.020599	0.027771	-0.06958	-0.40894	0.057373	-0.061035	0.083618	-0.005798	-0.015106	0.043182	-0.068359	0.007782	-0.015717	-0.18112	0.088806	-0.000305	-0.076904
55.406	0.011139	-0.067749	0.10529	0.021515	0.010681	-0.045776	-0.041046	0.006561	-0.032043	0.026703	-0.02243	0.000763	-0.12619	-0.095825	-0.028992	-0.13275	0.00824	-0.021362	-0.69412	0.12528	0.1033	0.15457	-0.013733	0.0177	0.045471	-0.062256	0.003357	-0.018768	-0.10468	0.022583	-0.003052	-0.10727
55.407	0.009766	-0.070496	0.070801	0.024719	0.009613	-0.04425	-0.046692	0.003662	-0.003967	0.028076	-0.032501	0.00351	-0.036621	-0.22629	-0.11765	-0.40024	-0.026245	-0.003967	-0.92514	0.084991	0.10803	0.14618	-0.057068	0.04303	0.038147	-0.058136	0.012817	-0.014343	-0.12955	0.00473	-0.001831	-0.13138
55.408	0.011749	-0.074158	0.063934	-0.003357	0.014801	-0.027313	-0.06012	0.005341	0.029907	0.10361	-0.008698	0.014038	-0.014648	-0.44617	-0.19257	0.89508	-0.03418	-0.021667	-0.7872	0.010986	0.031891	0.16327	-0.004578	0.038605	0.030212	-0.04364	0.008087	-0.009918	-0.089569	0.024261	-0.000153	-0.14771
55.409	0.005646	-0.049133	0.063629	0.004425	0.017853	-0.002594	-0.1033	-0.007935	0.036163	0.10696	0.020905	0.004578	0.036469	-0.33295	-0.11505	-0.13031	-0.023956	-0.049744	-0.47455	0.007629	-0.004578	0.11841	-0.048828	0.06073	0.04364	-0.033112	0.02182	-0.012054	-0.12451	0.028534	-0.001068	-0.16419
55.41	0.007477	-0.053864	0.068359	-0.00885	0.016785	-0.024261	-0.09491	-0.003357	0.065155	0.12634	0.004883	0.007629	0.096741	-0.077515	-0.04425	0.002594	-0.010223	-0.053558	0.13626	0.063171	-0.027313	0.018921	-0.048981	0.03891	0.063629	-0.02594	0.023499	-0.015106	-0.21225	0.060272	-0.003662	-0.15839
55.411	0.011749	-0.05188	0.09552	0.001831	0.007782	-0.020294	-0.002136	-0.002289	0.042725	0.19867	0.009155	0.009766	0.015717	0.25055	-0.032501	-0.22736	0.005493	-0.045471	1.6982	0.004272	-0.14053	0.037994	-0.074615	0.072327	0.074005	0	0.009766	-0.012665	-0.30319	0.08728	-0.002136	-0.16647
55.412	0.007782	-0.059814	0.094452	-0.00473	0.014954	0.007019	0.014191	-0.004425	-0.12375	0.22964	0	0.011749	-0.095367	0.19867	-0.032196	0.30151	0.021973	-0.033722	0.99976	-0.018311	-0.28122	0.055084	-0.041962	0.074158	0.048676	0.02182	0.013123	-0.012207	-0.42053	-0.015259	-0.000916	-0.14465
55.413	0.005341	-0.020905	0.08667	-0.004272	0.006256	0.010376	-0.020294	-0.001831	-0.10971	0.289	0.003204	0.001984	-0.080566	-0.014496	-0.003967	0.11307	0.005035	-0.023346	-0.41153	-0.087128	-0.2623	0.28442	-0.044708	0.026855	0.077972	0.059357	0.014191	-0.007324	-0.077515	-0.010529	-0.004883	-0.12711
55.414	-0.002899	-0.027466	0.11276	-0.005646	0.01358	-0.010986	0.080719	-0.009155	-0.033264	0.1619	0.001221	0.018158	-0.040131	-0.20325	0.026398	-0.091248	0.02533	0.018616	-0.51971	-0.075531	-0.18387	0.39154	-0.050659	0.010986	0.06897	0.080872	0.010681	-0.007782	0.007629	0.034332	-0.002441	-0.10727
55.415	0.006561	-0.015717	0.088806	0.003204	0.014496	-0.009003	0.093536	-0.008545	-0.024109	-0.013885	0.007019	0.031738	0.052795	-0.2179	0.032654	0.000763	0.006104	-0.089569	-0.7016	-0.033569	0.071259	0.16754	-0.059662	0.032806	0.059052	0.10651	0.009308	-0.010834	0.043182	0.03952	-0.002594	-0.087738
55.416	0.003052	-0.054321	0.063629	0.013885	0.013275	-0.006409	0.1149	0.010071	-0.009155	-0.074463	0.000153	0.041656	0.26428	-0.053711	0.046692	-0.062714	-0.011444	-0.021973	-0.34912	0.11993	0.51209	-0.041504	-0.047913	0.091705	0.073853	0.13031	0.027771	-0.017548	-0.029144	0.01709	-0.006409	-0.064087
55.417	0.008545	-0.068207	0.031586	0.018158	0.01709	-0.015259	0.022736	0.037537	-0.029907	-0.07782	-0.001831	-0.00351	0.38223	0.26138	0.044098	0.037384	0.013733	-0.04837	-0.37064	0.15137	0.31342	-0.086365	-0.001068	-0.013428	0.049591	0.13534	0.026703	-0.009003	0.092773	0.015411	-0.001068	-0.048065
55.418	0.005493	-0.08255	0.032806	0.00351	0.011749	-0.014343	-0.071106	0.014648	-0.02533	-0.00946	-0.005188	0.045471	0.38956	0.34058	0.045471	0.017548	0.027008	-0.06546	-0.50507	0.073853	0.070953	0.016937	0.048828	-0.061646	0.03418	0.13672	0.017853	-0.00824	0.46951	0.010681	-0.002441	-0.042572
55.419	0.004578	-0.075836	0.041504	-0.013275	0.014038	-0.014191	-0.03952	0.003662	0.018158	-0.000305	-0.00412	0.055237	0.16907	0.31677	0.02655	0.001373	0.023651	-0.00946	-0.096588	0.10712	0.029907	0.074768	0.015564	-0.042572	0.021973	0.11978	0.027008	-0.011902	0.53574	0.038605	-0.001984	-0.019836
55.42	0.002441	-0.077057	0.02182	-0.018158	0.010376	-0.016479	-0.035858	0.009613	0.007629	-0.03067	0.020294	0.00885	-0.56335	0.37354	0.033569	-0.040436	0.033722	0.013428	0.03006	0.007172	-0.15549	0.076294	0.035706	-0.006561	0.033875	0.10284	0.032043	-0.00824	0.33112	0.024719	0	-0.015717
55.421	0.009613	-0.055084	0.017853	-0.00946	0.018463	-0.021057	-0.065155	0.023804	-0.001221	-0.036774	0.029144	-0.027008	-0.48966	0.33798	-0.050964	0.01709	0.033722	0.033722	-0.26871	-0.18265	-0.070801	0.014496	-0.008545	-0.000763	0.024872	0.086823	0.008545	-0.003357	-0.1915	0.016022	0.002594	-0.018005
55.422	0.006104	-0.02594	0.068512	0.002594	0.015259	-0.022583	-0.10193	0.013275	0.025635	-0.020905	0.011902	-0.00061	-0.053711	0.14175	-0.09613	0.016022	0.069275	0.052643	0.2269	-0.19226	0.006866	-0.06073	0.002441	0.011597	0.038452	0.060272	0.033112	-0.007782	-0.33386	-0.012665	-0.002441	-0.001373
55.423	0.009918	-0.018463	0.097351	0.019684	0.011139	-0.042267	-0.07309	-0.016174	0.052643	-0.002289	-0.020142	-0.007629	0.019836	0.054321	-0.067291	-0.015717	0.1001	0.024719	-0.11719	-0.082703	-0.103	-0.095825	-0.00412	-0.066986	0.023193	0.046692	0.003357	-0.007782	-0.13275	0.062408	-0.006256	0.001221
55.424	0.010071	-0.003357	0.071259	0.041962	0.017242	-0.023193	-0.085297	-0.023499	0.016632	0.063019	0.029144	-0.00824	0.25299	-0.006714	0.057526	-0.009918	0.11993	-0.010071	-0.15152	-0.090942	-0.10483	-0.070038	0.013885	-0.085602	0.030823	0.029755	-0.028534	-0.006866	0.052643	0.074463	-0.002441	0.00412
55.425	-0.001678	0.011597	0.062561	0.009766	0.017853	0.005188	-0.02655	-0.02121	0.029449	0.065918	0.027771	-0.011444	0.46707	0.064392	0.035553	-0.004272	0.10849	-0.022583	0.020905	-0.1712	-0.06134	-0.088501	-0.005035	-0.12024	0.034485	0.011749	-0.041809	-0.006561	0.12131	0.048218	-0.002289	0.016479
55.426	0.003052	0.024567	0.066681	0.008545	0.016022	-0.007477	0.009766	-0.015106	0.03067	0.072632	0.010986	-0.006256	-0.18723	0.073242	0.017242	-0.008392	0.12146	-0.044098	-0.036011	-0.08316	-0.10788	-0.062561	0.000153	-0.07782	0.02533	-0.004272	0.033722	-0.003357	0.13138	0.022125	-0.003967	0.020752
55.427	-0.000305	0.066833	0.064697	0.02243	0.01358	-0.011902	0.027618	-0.025635	0.01236	0.065918	-0.015564	-0.004425	0.32349	0.058441	-0.014343	0.000458	0.10422	0.022278	-0.39795	0.037231	-0.10468	0.056458	-0.072021	-0.004883	0.038757	-0.014343	0.1207	-0.008087	-0.029907	0.049438	-0.002441	0.027161
55.428	-0.00061	0.070801	0.036011	0.018005	0.014648	-0.005493	0.03479	-0.014954	0.074921	-0.10254	-0.018158	0.000153	0.042572	0.030212	-0.045319	-0.011597	0.011292	0.028076	-0.36697	0.24979	0.054016	0.23254	-0.080414	0.03891	0.045776	-0.016327	0.1358	-0.005646	-0.061188	0.060425	-0.001678	0.019073
55.429	0.001373	0.068054	-0.014038	0.024414	0.013123	0.001678	0.025787	-0.016937	0.14771	-0.19257	0.079956	0.003052	-0.30441	0.024872	-0.037079	-0.012054	-0.1413	-0.001831	-0.35233	0.21759	-0.069427	0.54016	-0.061951	0.092163	0.055084	-0.021515	0.070648	-0.010223	-0.048828	0.044098	-0.002899	0.021515
55.43	0	0.04776	-0.03952	0.008087	0.0177	-0.001068	0.084534	-0.018158	0.052643	-0.12421	-0.013123	-0.004272	-0.044556	0.055847	-0.003815	0.004272	-0.19943	-0.026398	-0.49088	0.13443	-0.20447	0.41077	-0.025024	0.21255	0.069733	-0.022583	-0.12299	-0.005188	-0.13519	0.032654	-0.00412	0.01236
55.431	-0.001526	0.053253	-0.030823	0.021362	0.011292	-0.005798	0.070801	-0.009766	0.004425	-0.041199	0.04715	-0.001526	-0.31906	-0.003662	-0.082245	-0.001068	-0.14191	-0.03006	-0.63217	0.007019	-0.12421	0.19486	-0.049133	0.18967	0.056915	-0.022736	-0.16632	-0.008087	-0.20477	0.018921	-0.003357	0.021667
55.432	-0.003357	0.051117	0.011749	0.032349	0.03006	-0.013123	0.052643	-0.000153	0.004883	-0.010071	0.014496	0.006104	0.008392	-0.008545	-0.19058	-0.015411	-0.053406	-0.000458	-0.271	-0.11063	-0.054474	0.090637	-0.054474	0.14328	0.058899	-0.02243	-0.14679	-0.004425	0.061798	0.001373	-0.002136	0.024414
55.433	0.006714	0.014496	-0.001373	0.021667	0.017242	-0.00946	0.046844	-0.000763	-0.005493	-0.011902	0.014801	0.001984	0.086517	0.009003	-0.14526	-0.005341	-0.03418	-0.014343	0.070801	-0.041809	-0.075989	-0.007629	-0.004425	0.082245	0.035553	-0.031433	-0.1648	-0.005951	0.27222	0.00946	-0.002289	0.029755
55.434	-0.001831	0.040436	-0.018005	-0.005798	0.007477	-0.010681	0.067444	0.004883	-0.013123	-0.014191	0.018768	0.005188	0.13626	0.014801	-0.080261	-0.012817	-0.017395	0.003815	-0.19394	0.052032	-0.072784	-0.079498	-0.007324	-0.001984	0.006866	-0.033722	-0.23499	-0.005035	0.20828	0.029449	0	0.026855
55.435	0.001526	0.024261	0.005646	-0.021362	0.000763	-0.000916	0.17548	-0.008087	-0.020447	-0.015869	0.016022	-0.001221	-0.042114	0.043335	0.023499	-0.005951	0.007477	0.015564	0.061188	0.15686	-0.042725	-0.039215	0.019531	0.014954	0.00351	-0.036163	-0.2095	-0.005798	0.16434	0.020752	-0.000763	0.019226
55.436	0.004578	-0.039063	-0.003052	-0.031128	0.004578	0.009766	0.14725	0.00473	-0.034332	-0.024567	0.032043	-0.000153	-0.19409	0.10361	0.15869	-0.005341	0.041351	-0.015259	0.15091	0.17044	-0.040131	-0.075989	0.000153	-0.008545	0.003967	-0.029449	-0.13901	-0.006104	0.1474	0.039215	-0.00061	0.013123
55.437	0.001373	-0.023499	0.011902	-0.016479	0.007629	-0.004272	0.051422	0.015259	-0.043182	-0.021667	0.016327	0.001221	-0.037689	0.00946	0.14008	0.003662	0.085144	-0.007019	-0.002747	0.14557	-0.012054	-0.17868	0.023956	-0.031281	0.002747	-0.022888	-0.044556	-0.007019	0.21347	0.050507	-0.001678	0.006256
